<svg width="24" height="24" viewBox="0 0 24 24" fill="currentColor" xmlns="http://www.w3.org/2000/svg">
<path d="M13.9511 2.71648L14.1335 2.88648L14.8522 3.60523C15.0991 3.85095 15.4229 4.00245 15.7674 4.03649L15.9161 4.04381H16.9441C18.5479 4.04381 19.8594 5.29798 19.951 6.87886L19.9561 7.05581V8.08281C19.9561 8.43261 20.0767 8.76889 20.2943 9.03627L20.3935 9.14648L21.1123 9.86528C22.2438 10.9917 22.2943 12.793 21.2577 13.9801L21.1225 14.1251L20.3941 14.8535C20.1491 15.0991 19.9975 15.4232 19.9635 15.7673L19.9561 15.9158V16.9448C19.9561 18.5485 18.702 19.8591 17.1211 19.9507L16.9441 19.9558H15.9161C15.5676 19.9558 15.2309 20.0769 14.9633 20.2951L14.8531 20.3945L14.1353 21.1113C13.0101 22.2442 11.2075 22.2945 10.0199 21.2574L9.8658 21.1131L9.14868 20.396C8.90029 20.1494 8.57585 19.9973 8.23235 19.9632L8.08413 19.9558H7.05513C5.452 19.9558 4.14085 18.7023 4.04924 17.1217L4.04413 16.9448V15.9158C4.04413 15.5678 3.92283 15.2308 3.70475 14.9638L3.60543 14.8538L2.8883 14.1356C1.75573 13.0095 1.70549 11.2068 2.74251 10.0205L2.8778 9.87548L3.60392 9.14837C3.85087 8.89966 4.00269 8.57584 4.03679 8.23149L4.04413 8.08281V7.05581L4.04924 6.87888C4.13746 5.35671 5.35663 4.13718 6.87826 4.04893L7.05513 4.04381H8.08413C8.43261 4.04381 8.76938 3.92293 9.03642 3.70575L9.14643 3.60685L9.8646 2.88769C10.991 1.75621 12.7934 1.70639 13.9511 2.71648ZM11.0415 3.84259L10.9268 3.94677L10.2056 4.66902C9.68832 5.18261 9.0042 5.48969 8.28195 5.5373L8.08413 5.54381H7.05513C6.26756 5.54381 5.61985 6.14796 5.55031 6.91825L5.54413 7.05581V8.08281C5.54413 8.81198 5.27952 9.51313 4.80223 10.0612L4.66683 10.2068L3.93966 10.9349C3.38784 11.4893 3.35572 12.3649 3.84337 12.959L3.94783 13.0739L4.66709 13.7941C5.18149 14.3097 5.48978 14.9951 5.53759 15.7179L5.54413 15.9158V16.9448C5.54413 17.7328 6.14783 18.3801 6.91764 18.4496L7.05513 18.4558H8.08413C8.81192 18.4558 9.51367 18.7207 10.0619 19.1981L10.2075 19.3335L10.9308 20.0568C11.489 20.6119 12.3649 20.6442 12.9584 20.1566L13.0732 20.0521L13.7941 19.3322C14.3108 18.818 14.9952 18.5101 15.7181 18.4623L15.9161 18.4558H16.9441C17.7328 18.4558 18.3804 17.8524 18.4499 17.0823L18.4561 16.9448V15.9158C18.4561 15.187 18.7209 14.484 19.1976 13.9383L19.3328 13.7935L20.0603 13.066C20.6121 12.511 20.6441 11.6358 20.1571 11.042L20.0528 10.9271L19.3309 10.2053C18.817 9.68769 18.5102 9.00425 18.4626 8.28097L18.4561 8.08281V7.05581C18.4561 6.2674 17.8521 5.61955 17.0817 5.54999L16.9441 5.54381H15.9161C15.187 5.54381 14.4849 5.27942 13.938 4.80246L13.7928 4.66714L13.1049 3.97737L13.065 3.94034C12.5107 3.38858 11.6349 3.35627 11.0415 3.84259ZM15.0965 14.0424C15.1665 14.1124 15.2265 14.1924 15.2665 14.2824C15.2965 14.3724 15.3165 14.4724 15.3165 14.5724C15.3165 14.6734 15.2965 14.7624 15.2665 14.8524C15.2265 14.9424 15.1665 15.0324 15.0965 15.1024C14.9565 15.2424 14.7665 15.3224 14.5665 15.3224C14.3665 15.3224 14.1765 15.2424 14.0365 15.1024C13.9665 15.0324 13.9165 14.9424 13.8765 14.8524C13.8365 14.7624 13.8165 14.6734 13.8165 14.5724C13.8165 14.4724 13.8365 14.3724 13.8765 14.2824C13.9165 14.1924 13.9665 14.1124 14.0365 14.0424C14.3165 13.7624 14.8165 13.7624 15.0965 14.0424ZM15.1002 8.89918C15.3664 9.16545 15.3906 9.58211 15.1728 9.87572L15.1002 9.95984L9.96016 15.0998C9.66726 15.3927 9.19239 15.3927 8.8995 15.0998C8.63323 14.8336 8.60902 14.4169 8.82688 14.1233L8.8995 14.0392L14.0395 8.89918C14.3324 8.60629 14.8073 8.60629 15.1002 8.89918ZM9.95643 8.90281C10.0964 9.04181 10.1764 9.23281 10.1764 9.43281C10.1764 9.53281 10.1664 9.62181 10.1264 9.71281C10.0864 9.80281 10.0264 9.88281 9.95643 9.96281C9.88643 10.0328 9.80643 10.0818 9.71643 10.1218C9.62643 10.1618 9.52643 10.1828 9.42643 10.1828C9.32643 10.1828 9.23643 10.1618 9.14643 10.1218C9.05643 10.0818 8.96643 10.0328 8.89643 9.96281C8.82643 9.88281 8.77643 9.80281 8.73643 9.71281C8.69643 9.62181 8.67643 9.53281 8.67643 9.43281C8.67643 9.33181 8.69643 9.23281 8.73643 9.14281C8.77643 9.05281 8.82643 8.96281 8.89643 8.90281C9.18643 8.62181 9.67643 8.62181 9.95643 8.90281Z" fill="currentColor"/></svg>
